<svg width="48" height="48" viewBox="0 0 48 48" fill="none" xmlns="http://www.w3.org/2000/svg">
<path d="M46.4998 12.118C46.4998 12.1109 46.4998 12.1109 46.4927 12.1109L36.9214 4.35292C36.7788 4.24444 36.6027 4.18911 36.4236 4.19645L23.9867 5.02135C23.6951 5.04263 23.4462 5.23463 23.3537 5.51907C23.3117 5.65653 23.3124 5.80348 23.3555 5.94057C23.3987 6.07766 23.4824 6.19847 23.5955 6.28707L26.5892 8.66213L25.3377 12.6443H6.73572C4.75891 12.6443 3.15184 14.2584 3.15184 16.2353V37.0134H1.95719C1.56606 37.0134 1.24609 37.3333 1.24609 37.7244C1.24609 41.0737 3.97666 43.8042 7.32587 43.8042H34.2264C37.5472 43.8042 40.2992 41.1163 40.2992 37.7244C40.2992 37.3333 39.9792 37.0134 39.5881 37.0134H38.4005V19.3143C38.5783 19.3214 38.749 19.3427 38.9267 19.3498H39.005C39.8725 19.3498 40.6619 18.7738 40.9249 17.9276L42.2902 13.5971L45.0564 13.4335L44.1178 16.4273C43.9968 16.797 44.2102 17.2023 44.58 17.3161C44.9497 17.4298 45.3551 17.2308 45.4759 16.8539L46.7275 12.8718V12.8575C46.8056 12.5944 46.6989 12.2815 46.4998 12.118ZM21.6117 41.1162H19.9336C19.8401 41.1166 19.7475 41.0984 19.661 41.0628C19.5746 41.0272 19.4961 40.9748 19.43 40.9087C19.3639 40.8426 19.3115 40.7641 19.2759 40.6777C19.2403 40.5912 19.2221 40.4986 19.2225 40.4051C19.2225 40.014 19.5424 39.694 19.9336 39.694H21.6117C21.7052 39.6937 21.7978 39.7119 21.8842 39.7475C21.9706 39.7831 22.0492 39.8355 22.1153 39.9016C22.1813 39.9677 22.2337 40.0462 22.2693 40.1326C22.3049 40.219 22.3231 40.3117 22.3228 40.4051C22.3228 40.8033 22.0098 41.1162 21.6117 41.1162ZM36.9783 37.0133H4.57394V16.2352C4.57394 15.0405 5.54809 14.0664 6.73572 14.0664H25.1956C25.3094 14.557 25.5938 14.9907 26.0417 15.2894C26.3902 15.5169 26.7457 15.7232 27.1013 15.9294H7.98719C7.13387 15.9294 6.43694 16.6262 6.43694 17.4795V33.6C6.43694 34.4604 7.13387 35.1573 7.98719 35.1573H33.5651C34.4255 35.1573 35.1224 34.4604 35.1224 33.6V18.916C35.7339 19.0298 36.3597 19.1293 36.9783 19.2005V37.0133ZM28.3954 32.2561C28.4889 32.2564 28.5815 32.2383 28.668 32.2027C28.7544 32.167 28.8329 32.1147 28.899 32.0486C28.9651 31.9825 29.0175 31.904 29.0531 31.8175C29.0887 31.7311 29.1069 31.6385 29.1065 31.545V31.3388H33.7002V33.6C33.7002 33.6178 33.6967 33.6353 33.6899 33.6517C33.6831 33.6681 33.6732 33.683 33.6606 33.6956C33.6481 33.7081 33.6332 33.7181 33.6168 33.7248C33.6004 33.7316 33.5828 33.7351 33.5651 33.7351H7.98719C7.91603 33.7351 7.85912 33.6783 7.85912 33.6V31.3388H27.6843V31.545C27.6843 31.936 28.0043 32.2561 28.3954 32.2561ZM29.1065 29.9166V29.7104C29.1069 29.6169 29.0887 29.5243 29.0531 29.4379C29.0175 29.3515 28.9651 29.2729 28.899 29.2069C28.8329 29.1408 28.7544 29.0884 28.668 29.0528C28.5815 29.0172 28.4889 28.999 28.3954 28.9993C28.0043 28.9993 27.6843 29.3193 27.6843 29.7104V29.9166H7.85922V17.4796C7.85916 17.4628 7.86243 17.4461 7.86884 17.4305C7.87526 17.415 7.88469 17.4008 7.89659 17.3889C7.9085 17.377 7.92264 17.3676 7.93821 17.3612C7.95377 17.3548 7.97045 17.3516 7.98728 17.3516C31.3252 17.3304 29.5759 17.3872 29.8746 17.3161C31.5884 18.0485 32.5697 18.3259 33.7003 18.6103V29.9166H29.1065ZM39.5667 17.501C39.4885 17.764 39.2467 17.9276 38.9764 17.9276C34.5392 17.7783 30.3651 16.3989 26.8239 14.102C26.5893 13.9456 26.4968 13.6824 26.5821 13.4123L27.7839 9.60788L33.2807 13.9526C33.4157 14.0592 33.5935 14.1161 33.7642 14.102L40.7685 13.6896L39.5667 17.501Z" fill="white"/>
<path d="M27.6201 23.673C27.6201 24.2988 27.3001 24.8535 26.7596 25.1663L22.6638 27.5626C22.1234 27.8755 21.4763 27.8755 20.9359 27.5626C20.3884 27.2569 20.0684 26.6952 20.0684 26.0694V21.2837C20.0684 20.658 20.3884 20.0962 20.9359 19.7904C21.4764 19.4775 22.1234 19.4775 22.6638 19.7975L26.7596 22.1867C27.3 22.4998 27.6201 23.0544 27.6201 23.673ZM17.3709 23.9964H10.2599C10.1665 23.9963 10.074 24.0147 9.98773 24.0504C9.90142 24.0861 9.82301 24.1385 9.75697 24.2045C9.69092 24.2706 9.63855 24.349 9.60283 24.4353C9.56712 24.5216 9.54877 24.6141 9.54883 24.7075C9.54877 24.8009 9.56712 24.8934 9.60283 24.9797C9.63855 25.066 9.69092 25.1444 9.75697 25.2104C9.82301 25.2765 9.90142 25.3289 9.98773 25.3646C10.074 25.4003 10.1665 25.4186 10.2599 25.4186H17.3709C17.4643 25.4186 17.5568 25.4003 17.6431 25.3646C17.7294 25.3289 17.8078 25.2765 17.8738 25.2104C17.9399 25.1444 17.9922 25.066 18.028 24.9797C18.0637 24.8934 18.082 24.8009 18.082 24.7075C18.082 24.6141 18.0637 24.5216 18.028 24.4353C17.9922 24.349 17.9399 24.2706 17.8738 24.2045C17.8078 24.1385 17.7294 24.0861 17.6431 24.0504C17.5568 24.0147 17.4643 23.9963 17.3709 23.9964ZM17.3709 26.8408H10.2599C10.1665 26.8407 10.074 26.8591 9.98773 26.8948C9.90142 26.9305 9.82301 26.9829 9.75697 27.0489C9.69092 27.1149 9.63855 27.1934 9.60283 27.2797C9.56712 27.366 9.54877 27.4585 9.54883 27.5519C9.54877 27.6453 9.56712 27.7378 9.60283 27.8241C9.63855 27.9104 9.69092 27.9888 9.75697 28.0548C9.82301 28.1209 9.90142 28.1732 9.98773 28.209C10.074 28.2447 10.1665 28.263 10.2599 28.263H17.3709C17.4643 28.263 17.5568 28.2447 17.6431 28.209C17.7294 28.1732 17.8078 28.1209 17.8738 28.0548C17.9399 27.9888 17.9922 27.9104 18.028 27.8241C18.0637 27.7378 18.082 27.6453 18.082 27.5519C18.082 27.4585 18.0637 27.366 18.028 27.2797C17.9922 27.1934 17.9399 27.1149 17.8738 27.0489C17.8078 26.9829 17.7294 26.9305 17.6431 26.8948C17.5568 26.8591 17.4643 26.8407 17.3709 26.8408Z" fill="white"/>
</svg>
