<svg width="48" height="48" viewBox="0 0 48 48" fill="none" xmlns="http://www.w3.org/2000/svg">
<g clip-path="url(#clip0_432_2782)">
<path d="M43.0499 8.0998C43.0499 10.7248 40.8749 12.8998 38.2499 12.8998C35.6249 12.8998 33.4499 10.7248 33.4499 8.0998C33.4499 5.4748 35.6249 3.2998 38.2499 3.2998C40.8749 3.2998 43.0499 5.4748 43.0499 8.0998ZM14.3249 31.0498L14.2499 31.1998L6.97485 41.6248C6.74985 41.9998 6.29985 42.0748 5.92485 41.7748C5.62485 41.5498 5.47485 41.0998 5.77485 40.7248L12.5999 31.0498H14.3249ZM24.0749 41.7748C23.6999 41.9998 23.2499 41.9248 23.0249 41.6248L15.7499 31.1998L15.6749 31.0498H17.4749L24.2999 40.7248C24.5249 41.0998 24.4499 41.5498 24.0749 41.7748Z" fill="white"/>
<path d="M15.75 31.0499V38.3249C15.75 38.6999 15.45 39.0749 15 39.0749C14.625 39.0749 14.25 38.6999 14.25 38.3249V31.0499H15.75ZM23.025 14.2499C22.8 14.3249 22.65 14.4749 22.425 14.5499C22.2 14.6999 21.975 14.8499 21.75 15.0749L20.7 13.5749C20.475 13.1999 20.55 12.7499 20.85 12.5249C21.15 12.2999 21.675 12.3749 21.9 12.6749L23.025 14.2499Z" fill="white"/>
<path d="M20.025 11.325C21 10.65 22.425 10.875 23.175 11.85L24.6 13.875H24.675C26.1 13.875 27.375 14.55 28.125 15.75L29.175 17.325C29.25 17.25 29.325 17.1 29.4 17.025V8.25C29.4 7.875 29.025 7.5 28.65 7.5H0.75C0.3 7.5 0 7.875 0 8.25V28.875C0 29.25 0.3 29.625 0.75 29.625H28.575C28.95 29.625 29.325 29.25 29.325 28.875V28.275C27.6 28.575 26.025 27.825 25.2 26.475L21.225 20.25C20.475 19.125 20.325 17.7 20.85 16.425L19.5 14.475C18.75 13.425 19.05 12.075 20.025 11.325ZM4.65 11.4H14.25C14.7 11.4 15 11.7 15 12.15C15 12.6 14.7 12.9 14.25 12.9H4.65C4.2 12.9 3.9 12.6 3.9 12.15C3.9 11.775 4.2 11.4 4.65 11.4ZM4.65 15.675H18C18.45 15.675 18.75 15.975 18.75 16.425C18.75 16.875 18.45 17.175 18 17.175H4.65C4.2 17.175 3.9 16.875 3.9 16.425C3.9 15.975 4.2 15.675 4.65 15.675ZM21 24.075C21.45 24.075 21.75 24.375 21.75 24.825C21.75 25.275 21.45 25.575 21 25.575H4.65C4.2 25.575 3.9 25.275 3.9 24.825C3.9 24.375 4.2 24.075 4.65 24.075H21ZM19.5 19.875C19.95 19.875 20.25 20.175 20.25 20.625C20.25 21.075 19.95 21.375 19.5 21.375H4.65C4.2 21.375 3.9 21.075 3.9 20.625C3.9 20.175 4.2 19.875 4.65 19.875H19.5Z" fill="white"/>
<path d="M45.3758 14.3999H34.6508C34.2758 14.3999 33.9008 14.4749 33.6008 14.6249C33.3758 14.6999 33.0008 14.8499 29.0258 19.8749L26.8508 16.4999C26.0258 15.2999 24.4508 14.9999 23.2508 15.7499C21.9758 16.5749 21.7508 18.1499 22.5008 19.3499L26.4758 25.5749C27.4508 26.9999 29.4008 27.1499 30.5258 25.9499L32.4758 23.8499V41.9999C32.4758 43.3499 33.5258 44.5499 34.8008 44.6999C36.3758 44.8499 37.6508 43.6499 37.6508 42.1499V32.0999C37.6508 31.7249 37.9508 31.3499 38.4008 31.3499C38.7758 31.3499 39.1508 31.6499 39.1508 32.0999V41.9999C39.1508 43.4249 40.2758 44.6999 41.7758 44.6999C43.2008 44.6999 44.4008 43.4999 44.4008 42.0749V28.1999C44.7758 28.3499 45.0758 28.4249 45.5258 28.4249C46.9508 28.4249 48.1508 27.2249 48.1508 25.7999V17.0249C48.0008 15.5249 46.8008 14.3999 45.3758 14.3999ZM39.0008 25.3499C39.0008 25.7999 38.7008 26.0999 38.2508 26.0999C37.8008 26.0999 37.5008 25.7999 37.5008 25.3499V23.8499C37.5008 23.3999 37.8008 23.0999 38.2508 23.0999C38.7008 23.0999 39.0008 23.3999 39.0008 23.8499V25.3499ZM39.0008 20.8499C39.0008 21.2999 38.7008 21.5999 38.2508 21.5999C37.8008 21.5999 37.5008 21.2999 37.5008 20.8499V19.3499C37.5008 18.8999 37.8008 18.5999 38.2508 18.5999C38.7008 18.5999 39.0008 18.8999 39.0008 19.3499V20.8499Z" fill="white"/>
</g>
<defs>
<clipPath id="clip0_432_2782">
<rect width="48" height="48" fill="white"/>
</clipPath>
</defs>
</svg>
