<svg width="48" height="48" viewBox="0 0 48 48" fill="none" xmlns="http://www.w3.org/2000/svg">
<g clip-path="url(#clip0_432_2836)">
<path d="M37.0534 16.4688C37.1226 18.3326 39.7974 18.3312 39.8659 16.4688V10.6709L37.0534 11.6989V16.4688ZM9.05656 8.01382L23.5118 13.3009C23.8236 13.4149 24.1657 13.415 24.4776 13.301L38.9425 8.01401C40.1659 7.56823 40.1654 5.81791 38.9426 5.37241L24.4825 0.0855709C24.1707 -0.0285236 23.8285 -0.0285236 23.5167 0.0855709L9.05675 5.37241C7.8335 5.8181 7.83397 7.56832 9.05656 8.01382ZM14.3097 30.6775C14.3097 28.0474 12.1698 25.9075 9.53966 25.9075C3.22025 26.1473 3.22203 35.2086 9.53975 35.4475C12.1698 35.4475 14.3097 33.3077 14.3097 30.6775ZM43.2297 30.6775C43.2297 28.0474 41.0899 25.9075 38.4597 25.9075C32.1403 26.1473 32.1421 35.2086 38.4598 35.4475C41.0899 35.4475 43.2297 33.3077 43.2297 30.6775ZM19.2297 30.6775C19.2297 33.3077 21.3695 35.4475 23.9997 35.4475C30.3191 35.2077 30.3174 26.1464 23.9996 25.9075C21.3695 25.9075 19.2297 28.0474 19.2297 30.6775ZM38.4597 35.4475C36.5763 35.4475 34.8188 35.9962 33.3383 36.942C35.2097 39.105 36.3425 41.917 36.3425 44.9874V48H46.5934C47.37 48 47.9997 47.3704 47.9997 46.5937V44.9874C47.9997 39.7271 43.7201 35.4475 38.4597 35.4475Z" fill="white"/>
<path d="M23.92 35.4477C18.6209 35.4477 14.3097 39.7273 14.3097 44.9877V48.0001H33.5304V44.9876C33.5303 39.7273 29.2192 35.4477 23.92 35.4477ZM9.54 35.4477C4.27959 35.4477 0 39.7273 0 44.9876V46.5939C0 47.3705 0.629625 48.0001 1.40625 48.0001H11.4972V44.9876C11.4972 41.8865 12.6528 39.0489 14.5578 36.8774C13.0991 35.9716 11.3797 35.4477 9.54 35.4477ZM32.9375 18.2336V13.2036L25.4435 15.9427C24.515 16.2844 23.4727 16.2844 22.545 15.9419L15.0625 13.2052V18.2351C15.0625 18.5233 15.1511 18.8046 15.3162 19.0408C15.4814 19.277 15.7151 19.4568 15.9858 19.5557L23.5122 22.3084C23.824 22.4224 24.1661 22.4224 24.4779 22.3085L32.0139 19.5544C32.2847 19.4555 32.5185 19.2757 32.6837 19.0394C32.8489 18.8032 32.9375 18.5219 32.9375 18.2336Z" fill="white"/>
</g>
<defs>
<clipPath id="clip0_432_2836">
<rect width="48" height="48" fill="white"/>
</clipPath>
</defs>
</svg>
