<svg width="48" height="48" viewBox="0 0 48 48" fill="none" xmlns="http://www.w3.org/2000/svg">
<g clip-path="url(#clip0_434_2926)">
<path d="M36.0944 11.9054C35.5896 11.4004 34.9901 10.9998 34.3304 10.7265C33.6707 10.4532 32.9636 10.3125 32.2495 10.3125C31.5355 10.3125 30.8284 10.4532 30.1687 10.7265C29.5089 10.9998 28.9095 11.4004 28.4047 11.9054L11.9047 28.4054C10.8902 29.4263 10.3219 30.8078 10.3242 32.247C10.3266 33.6862 10.8994 35.0658 11.9172 36.0834C12.935 37.101 14.3147 37.6735 15.7539 37.6756C17.1931 37.6777 18.5745 37.1091 19.5952 36.0944L36.0952 19.5944C36.6 19.0895 37.0005 18.4901 37.2736 17.8304C37.5468 17.1708 37.6874 16.4637 37.6873 15.7497C37.6873 15.0357 37.5465 14.3288 37.2732 13.6691C36.9999 13.0095 36.5994 12.4102 36.0944 11.9054Z" fill="white"/>
<path d="M25.1633 41.6632C22.6555 44.1041 19.2875 45.4594 15.788 45.4357C12.2886 45.4121 8.93915 44.0115 6.4646 41.5369C3.99004 39.0624 2.5894 35.7129 2.56576 32.2135C2.54212 28.714 3.89739 25.346 6.33829 22.8382L22.8383 6.33821C25.346 3.89732 28.7141 2.54205 32.2135 2.56568C35.713 2.58932 39.0624 3.98997 41.537 6.46452C44.0115 8.93907 45.4122 12.2885 45.4358 15.788C45.4595 19.2874 44.1042 22.6555 41.6633 25.1632L35.4 31.425L36.9908 33.0165L43.2518 26.7555C46.1321 23.8293 47.7393 19.8834 47.7232 15.7774C47.7072 11.6715 46.0691 7.73833 43.166 4.83478C40.2628 1.93123 36.3298 0.292643 32.2239 0.276007C28.118 0.259371 24.1719 1.86604 21.2453 4.74596L4.74529 21.246C1.82684 24.1646 0.187359 28.123 0.1875 32.2505C0.187641 36.3779 1.8274 40.3363 4.74604 43.2547C7.66468 46.1732 11.6231 47.8126 15.7506 47.8125C19.878 47.8124 23.8363 46.1726 26.7548 43.254L33.0158 36.993L31.425 35.4L25.1633 41.6632Z" fill="white"/>
<path d="M32.2125 34.6063L34.599 32.2206L36.189 33.8106L33.804 36.1971L32.2125 34.6063ZM20.3895 36.8901C19.1556 38.1051 17.4914 38.7832 15.7597 38.7765C14.0281 38.7698 12.3692 38.0789 11.1447 36.8544C9.92019 35.6299 9.22931 33.9711 9.22263 32.2394C9.21594 30.5077 9.89399 28.8435 11.109 27.6096L27.609 11.1096C28.2167 10.4925 28.9405 10.0018 29.7387 9.66571C30.5369 9.32966 31.3937 9.15492 32.2597 9.15158C33.1258 9.14823 33.984 9.31635 34.7847 9.64623C35.5855 9.97612 36.3131 10.4612 36.9255 11.0736C37.5379 11.686 38.023 12.4136 38.3529 13.2144C38.6828 14.0151 38.8509 14.8733 38.8475 15.7394C38.8442 16.6054 38.6695 17.4622 38.3334 18.2604C37.9973 19.0587 37.5066 19.7824 36.8895 20.3901L30.6285 26.6518L32.2193 28.2426L38.4803 21.9816C40.13 20.3283 41.056 18.0878 41.0548 15.7522C41.0535 13.4166 40.1252 11.177 38.4736 9.52546C36.8221 7.87394 34.5825 6.94558 32.2469 6.94434C29.9113 6.9431 27.6708 7.86908 26.0175 9.51885L9.51751 26.0189C7.86784 27.6722 6.94198 29.9128 6.94336 32.2484C6.94474 34.584 7.87324 36.8236 9.52486 38.475C11.1765 40.1264 13.4161 41.0546 15.7517 41.0557C18.0873 41.0568 20.3278 40.1307 21.981 38.4808L28.242 32.2198L26.6513 30.6291L20.3895 36.8901Z" fill="white"/>
<path d="M27.4414 29.8335L29.8279 27.4478L31.4179 29.0378L29.0329 31.4243L27.4414 29.8335Z" fill="white"/>
<path d="M22.7768 39.2769C20.9094 41.1223 18.3876 42.1537 15.7622 42.1459C13.1369 42.1381 10.6212 41.0917 8.76483 39.2353C6.9084 37.3789 5.86203 34.8633 5.85424 32.2379C5.84646 29.6126 6.87789 27.0908 8.72327 25.2234L25.2233 8.72338C27.0907 6.878 29.6124 5.84657 32.2378 5.85436C34.8632 5.86214 37.3788 6.90852 39.2352 8.76494C41.0916 10.6214 42.138 13.137 42.1458 15.7623C42.1536 18.3877 41.1221 20.9095 39.2768 22.7769L33.0158 29.0386L34.6065 30.6294L40.8675 24.3684C43.1531 22.0828 44.4372 18.9828 44.4372 15.7505C44.4372 12.5182 43.1531 9.41823 40.8675 7.13263C38.5819 4.84703 35.482 3.56299 32.2496 3.56299C29.0173 3.56299 25.9174 4.84703 23.6318 7.13263L7.13177 23.6326C6.0001 24.7644 5.10243 26.108 4.49002 27.5867C3.8776 29.0653 3.56243 30.6502 3.5625 32.2507C3.56264 35.483 4.84681 38.5829 7.13252 40.8684C9.41822 43.1539 12.5182 44.4378 15.7505 44.4376C18.9829 44.4375 22.0828 43.1533 24.3683 40.8676L30.6293 34.6066L29.0385 33.0159L22.7768 39.2769Z" fill="white"/>
<path d="M29.8281 32.2197L32.2139 29.834L33.8046 31.424L31.4189 33.8105L29.8281 32.2197Z" fill="white"/>
</g>
<defs>
<clipPath id="clip0_434_2926">
<rect width="48" height="48" fill="white"/>
</clipPath>
</defs>
</svg>
