<svg xmlns="http://www.w3.org/2000/svg" version="1.1" xmlns:xlink="http://www.w3.org/1999/xlink" width="512" height="512" x="0" y="0" viewBox="0 0 520 520" style="enable-background:new 0 0 512 512" xml:space="preserve" class=""><g><path fill="#009045" d="m213.245 414.76-4.378-7.457C176.029 351.356 88.681 232.506 87.8 231.312l-2.562-3.482 32.862-32.463 94.036 65.663c58.937-76.169 113.841-128.59 149.758-159.311 39.678-33.94 64.8-49.127 65.845-49.757l1.188-.713h57.9l-9.805 8.733C353.2 170.268 218.867 404.889 217.524 407.246z" data-name="35-Checked" opacity="1" data-original="#009045"></path><g fill="#828282" data-name="13-Cancel"><ellipse cx="41.176" cy="122.687" rx="7.995" ry="7.991" fill="#FFFFFF" opacity="0" data-original="#828282" class=""></ellipse><ellipse cx="72.364" cy="122.687" rx="7.995" ry="7.991" fill="#FFFFFF" opacity="0" data-original="#828282" class=""></ellipse><ellipse cx="103.551" cy="122.687" rx="7.995" ry="7.991" fill="#FFFFFF" opacity="0" data-original="#828282" class=""></ellipse><ellipse cx="134.739" cy="122.687" rx="7.995" ry="7.991" fill="#FFFFFF" opacity="0" data-original="#828282" class=""></ellipse><ellipse cx="165.927" cy="122.687" rx="7.995" ry="7.991" fill="#FFFFFF" opacity="0" data-original="#828282" class=""></ellipse><ellipse cx="197.115" cy="122.687" rx="7.995" ry="7.991" fill="#FFFFFF" opacity="0" data-original="#828282" class=""></ellipse><ellipse cx="228.302" cy="122.687" rx="7.995" ry="7.991" fill="#FFFFFF" opacity="0" data-original="#828282" class=""></ellipse><ellipse cx="259.49" cy="122.687" rx="7.995" ry="7.991" fill="#FFFFFF" opacity="0" data-original="#828282" class=""></ellipse><ellipse cx="290.678" cy="122.687" rx="7.995" ry="7.991" fill="#FFFFFF" opacity="0" data-original="#828282" class=""></ellipse><ellipse cx="41.176" cy="465.76" rx="7.995" ry="7.991" fill="#FFFFFF" opacity="0" data-original="#828282" class=""></ellipse><ellipse cx="72.364" cy="465.76" rx="7.995" ry="7.991" fill="#FFFFFF" opacity="0" data-original="#828282" class=""></ellipse><ellipse cx="103.551" cy="465.76" rx="7.995" ry="7.991" fill="#FFFFFF" opacity="0" data-original="#828282" class=""></ellipse><ellipse cx="134.739" cy="465.76" rx="7.995" ry="7.991" fill="#FFFFFF" opacity="0" data-original="#828282" class=""></ellipse><ellipse cx="165.927" cy="465.76" rx="7.995" ry="7.991" fill="#FFFFFF" opacity="0" data-original="#828282" class=""></ellipse><ellipse cx="197.115" cy="465.76" rx="7.995" ry="7.991" fill="#FFFFFF" opacity="0" data-original="#828282" class=""></ellipse><ellipse cx="228.302" cy="465.76" rx="7.995" ry="7.991" fill="#FFFFFF" opacity="0" data-original="#828282" class=""></ellipse><ellipse cx="259.49" cy="465.76" rx="7.995" ry="7.991" fill="#FFFFFF" opacity="0" data-original="#828282" class=""></ellipse><ellipse cx="290.678" cy="465.76" rx="7.995" ry="7.991" fill="#FFFFFF" opacity="0" data-original="#828282" class=""></ellipse><ellipse cx="321.865" cy="465.76" rx="7.995" ry="7.991" fill="#FFFFFF" opacity="0" data-original="#828282" class=""></ellipse><ellipse cx="353.053" cy="465.76" rx="7.995" ry="7.991" fill="#FFFFFF" opacity="0" data-original="#828282" class=""></ellipse><ellipse cx="384.241" cy="465.76" rx="7.995" ry="7.991" fill="#FFFFFF" opacity="0" data-original="#828282" class=""></ellipse><ellipse cx="41.172" cy="434.568" rx="7.991" ry="7.995" fill="#FFFFFF" opacity="0" data-original="#828282" class=""></ellipse><ellipse cx="41.172" cy="403.38" rx="7.991" ry="7.995" fill="#FFFFFF" opacity="0" data-original="#828282" class=""></ellipse><ellipse cx="41.172" cy="372.193" rx="7.991" ry="7.995" fill="#FFFFFF" opacity="0" data-original="#828282" class=""></ellipse><ellipse cx="41.172" cy="341.005" rx="7.991" ry="7.995" fill="#FFFFFF" opacity="0" data-original="#828282" class=""></ellipse><ellipse cx="41.172" cy="309.817" rx="7.991" ry="7.995" fill="#FFFFFF" opacity="0" data-original="#828282" class=""></ellipse><ellipse cx="41.172" cy="278.629" rx="7.991" ry="7.995" fill="#FFFFFF" opacity="0" data-original="#828282" class=""></ellipse><ellipse cx="41.172" cy="247.442" rx="7.991" ry="7.995" fill="#FFFFFF" opacity="0" data-original="#828282" class=""></ellipse><ellipse cx="41.172" cy="216.254" rx="7.991" ry="7.995" fill="#FFFFFF" opacity="0" data-original="#828282" class=""></ellipse><ellipse cx="41.172" cy="185.066" rx="7.991" ry="7.995" fill="#FFFFFF" opacity="0" data-original="#828282" class=""></ellipse><ellipse cx="41.172" cy="153.879" rx="7.991" ry="7.995" fill="#FFFFFF" opacity="0" data-original="#828282" class=""></ellipse><ellipse cx="384.245" cy="434.568" rx="7.991" ry="7.995" fill="#FFFFFF" opacity="0" data-original="#828282" class=""></ellipse><ellipse cx="384.245" cy="403.38" rx="7.991" ry="7.995" fill="#FFFFFF" opacity="0" data-original="#828282" class=""></ellipse><ellipse cx="384.245" cy="372.193" rx="7.991" ry="7.995" fill="#FFFFFF" opacity="0" data-original="#828282" class=""></ellipse><ellipse cx="384.245" cy="341.005" rx="7.991" ry="7.995" fill="#FFFFFF" opacity="0" data-original="#828282" class=""></ellipse><ellipse cx="384.245" cy="309.817" rx="7.991" ry="7.995" fill="#FFFFFF" opacity="0" data-original="#828282" class=""></ellipse><ellipse cx="384.245" cy="278.629" rx="7.991" ry="7.995" fill="#FFFFFF" opacity="0" data-original="#828282" class=""></ellipse><ellipse cx="384.245" cy="247.442" rx="7.991" ry="7.995" fill="#FFFFFF" opacity="0" data-original="#828282" class=""></ellipse><ellipse cx="384.245" cy="216.254" rx="7.991" ry="7.995" fill="#FFFFFF" opacity="0" data-original="#828282" class=""></ellipse></g></g></svg>