<svg width="48" height="48" viewBox="0 0 48 48" fill="none" xmlns="http://www.w3.org/2000/svg">
<path d="M29.2404 31.5032C29.0328 31.3089 28.9063 31.0435 28.8862 30.7599L28.372 24.0908H27.8375C27.8026 24.5563 27.7822 25.0355 27.7749 25.5148C27.769 25.9263 27.6411 26.3269 27.4074 26.6657C27.1737 27.0045 26.8448 27.2663 26.4622 27.4181V31.8923C26.4622 32.3163 26.8098 32.6632 27.2404 32.6632H28.4629C28.8935 32.6632 29.2411 32.3155 29.2411 31.8923L29.2404 31.5032ZM19.508 34.5039C18.1797 34.9555 16.7961 35.2242 15.3953 35.3025L16.1946 43.1737C16.244 43.6881 16.4837 44.1655 16.8667 44.5124C17.2497 44.8594 17.7484 45.0508 18.2651 45.0494C18.5564 45.0499 18.8445 44.9892 19.1108 44.8712C19.3771 44.7531 19.6157 44.5805 19.8109 44.3643C20.0061 44.1481 20.1538 43.8933 20.2442 43.6164C20.3346 43.3395 20.3657 43.0467 20.3357 42.757L19.508 34.5039ZM8.2673 44.9454C8.12839 46.085 8.94803 47.1199 10.0942 47.2588C11.3713 47.365 12.284 46.4843 12.4077 45.4319L13.6026 35.2959C12.2056 35.2126 10.8266 34.9391 9.50366 34.4828L8.2673 44.9454Z" fill="#D7D7D7"/>
<path d="M14.5337 8.73578C16.7452 8.73578 18.538 6.94296 18.538 4.73141C18.538 2.51987 16.7452 0.727051 14.5337 0.727051C12.3221 0.727051 10.5293 2.51987 10.5293 4.73141C10.5293 6.94296 12.3221 8.73578 14.5337 8.73578Z" fill="#D7D7D7"/>
<path d="M39.1396 31.1142C39.2487 31.1128 39.3533 31.0708 39.433 30.9962C39.5127 30.9217 39.5616 30.82 39.5701 30.7112L39.6741 29.3221L38.8894 29.5934L37.7294 22.424L38.3061 22.2436C38.4377 22.2087 39.237 21.9934 40.2581 21.7156L40.621 17.008C41.5439 19.6051 41.9119 22.2611 42.0326 24.2931C42.0547 24.6609 42.222 25.0049 42.4976 25.2496C42.7732 25.4942 43.1346 25.6195 43.5025 25.5978C43.6846 25.5869 43.8628 25.5403 44.0269 25.4606C44.1911 25.3808 44.3379 25.2695 44.459 25.133C44.5801 24.9965 44.6731 24.8375 44.7327 24.6651C44.7923 24.4926 44.8174 24.3101 44.8065 24.128C44.6137 20.9032 43.877 16.2305 41.4625 12.2829C40.7839 11.1716 36.1388 7.56433 30.2326 10.5171C30.2465 12.0872 30.2399 19.5207 28.9614 22.7229L29.573 30.712C29.5833 30.8214 29.6337 30.9231 29.7145 30.9975C29.7954 31.0719 29.9009 31.1137 30.0108 31.1149H30.109L29.149 45.0458C29.1301 45.3188 29.1652 45.5929 29.2523 45.8524C29.3394 46.1118 29.4768 46.3516 29.6566 46.5579C29.8364 46.7642 30.0551 46.9331 30.3002 47.0549C30.5453 47.1767 30.812 47.249 31.085 47.2676C31.358 47.2865 31.6321 47.2514 31.8916 47.1643C32.151 47.0772 32.3908 46.9398 32.5971 46.76C32.8035 46.5802 32.9723 46.3615 33.0941 46.1164C33.2159 45.8713 33.2882 45.6047 33.3068 45.3316L34.277 31.2545C34.2806 31.2065 34.2726 31.1614 34.2726 31.1142H34.8734C34.8734 31.1614 34.8654 31.2072 34.869 31.2545L35.8385 45.3316C35.8883 45.8739 36.1483 46.3751 36.5629 46.7281C36.9775 47.0811 37.5138 47.2578 38.057 47.2205C38.6003 47.1831 39.1073 46.9347 39.4698 46.5283C39.8322 46.1218 40.0212 45.5897 39.9963 45.0458L39.0363 31.1149L39.1396 31.1142ZM27.0792 25.504C27.1221 23.1498 27.4436 20.0349 28.5228 17.008L28.8094 20.7207C29.4836 17.4901 29.5461 12.6203 29.5388 10.8909C29.1781 11.0923 27.9686 11.7985 27.7075 12.2283C25.0094 16.6676 24.365 21.8705 24.301 25.4538C24.2944 25.8221 24.4343 26.1779 24.6901 26.4431C24.9458 26.7082 25.2963 26.8609 25.6646 26.8676C26.3883 26.8974 27.0646 26.2989 27.0792 25.504Z" fill="#D7D7D7"/>
<path d="M34.5743 8.82887C36.8116 8.82887 38.6253 7.01521 38.6253 4.77796C38.6253 2.5407 36.8116 0.727051 34.5743 0.727051C32.3371 0.727051 30.5234 2.5407 30.5234 4.77796C30.5234 7.01521 32.3371 8.82887 34.5743 8.82887Z" fill="#D7D7D7"/>
<path d="M8.1638 21.0266C6.32962 21.6724 2.38416 23.0622 2.0918 23.1801L3.47434 28.8142L6.96162 27.1124L8.1638 21.0266ZM43.5449 26.2928H43.4198C42.8889 26.2931 42.378 26.0904 41.9918 25.7261C41.6056 25.3618 41.3733 24.8635 41.3427 24.3335C41.2991 23.6202 41.2295 22.9087 41.134 22.2004C40.2593 22.4302 39.3863 22.6664 38.5151 22.9088L39.4387 28.6332L45.9063 26.4382L45.6911 20.9917L45.1907 21.1233C45.3507 22.1932 45.4474 23.1939 45.5034 24.0826C45.5351 24.635 45.3469 25.1775 44.9799 25.5916C44.613 26.0057 44.0971 26.2578 43.5449 26.2928ZM21.2591 26.3757L20.4183 22.103C19.1289 22.2462 17.598 22.0542 16.3194 21.8113C16.3194 21.8186 16.3194 21.8324 16.3267 21.839C17.1529 23.903 18.8067 25.431 21.2591 26.3757Z" fill="#D7D7D7"/>
<path d="M15.5006 21.6034C15.0639 21.4156 14.7052 21.0829 14.4851 20.6616C14.2649 20.2402 14.1967 19.7558 14.2919 19.29C14.3832 18.8219 14.6334 18.3998 15.0003 18.0951C15.0352 14.7954 16.3065 11.5714 17.0912 9.88344C12.7865 8.72998 8.83155 10.954 8.45628 11.6754C7.59009 13.2158 5.44828 18.0449 4.24609 21.6725C5.368 21.2731 6.49116 20.8772 7.61555 20.4849C8.12292 19.156 8.66271 17.8397 9.23446 16.5373V19.1787L6.62937 32.3853C11.6519 35.3794 17.425 35.3794 22.441 32.3853L21.4126 27.1751C18.6163 26.1976 16.449 24.4471 15.5006 21.6034Z" fill="#D7D7D7"/>
<path d="M19.2822 10.7235C18.7935 10.4766 18.2886 10.2633 17.7709 10.085C17.0553 11.6341 15.8604 14.6282 15.7149 17.7061C16.0474 17.6003 16.4014 17.5813 16.7433 17.6508C18.3062 17.9635 19.272 18.005 19.8415 17.9635V15.4355C20.7447 16.8071 21.2262 17.9846 21.0225 18.3497C21.0182 18.3577 20.4182 19.0922 16.6044 18.333C16.243 18.2609 15.8678 18.3354 15.5613 18.54C15.2549 18.7446 15.0422 19.0625 14.9702 19.4239C14.8981 19.7852 14.9726 20.1604 15.1772 20.4669C15.3818 20.7734 15.6997 20.986 16.0611 21.0581C29.5382 23.7424 21.6276 11.2937 19.2822 10.7235Z" fill="#D7D7D7"/>
</svg>
