<?xml version="1.0" standalone="no"?>
<!DOCTYPE svg PUBLIC "-//W3C//DTD SVG 20010904//EN"
 "http://www.w3.org/TR/2001/REC-SVG-20010904/DTD/svg10.dtd">
<svg version="1.0" xmlns="http://www.w3.org/2000/svg"
 width="637.000000pt" height="637.000000pt" viewBox="0 0 637.000000 637.000000"
 preserveAspectRatio="xMidYMid meet">
<metadata>
Created by potrace 1.14, written by Peter Selinger 2001-2017
</metadata>
<g transform="translate(0.000000,637.000000) scale(0.100000,-0.100000)"
fill="#000000" stroke="none">
<path d="M1698 5578 c-72 -9 -140 -44 -198 -100 -175 -168 -125 -461 97 -570
58 -29 75 -32 152 -32 72 -1 95 4 142 26 284 132 286 520 4 648 -70 32 -118
39 -197 28z"/>
<path d="M1440 4721 l-35 -6 0 -1535 c0 -1452 1 -1538 18 -1594 44 -142 118
-258 223 -348 128 -110 265 -165 457 -183 l47 -4 1 32 c0 18 0 530 -1 1138
l-1 1105 298 0 298 -1 2 -1040 c1 -572 4 -1094 7 -1160 8 -214 71 -360 221
-510 133 -134 281 -205 462 -221 l73 -7 0 1444 c0 794 0 1456 0 1470 l0 25
638 0 c350 -1 645 0 655 3 16 3 17 29 17 367 l0 364 -1335 0 -1335 0 0 23 c-4
189 -118 401 -280 518 -128 92 -300 140 -430 120z m3089 -777 c62 -18 140 -89
166 -150 23 -53 26 -148 7 -204 -21 -62 -102 -141 -166 -163 -133 -46 -269 11
-331 138 -59 120 -17 274 94 348 72 48 143 57 230 31z"/>
<path d="M4090 1553 l0 -1555 73 5 c166 13 341 99 458 224 82 88 132 176 172
303 20 64 21 86 23 1322 l2 1257 -364 0 -364 0 0 -1556z"/>
</g>
</svg>
